# Blender 4.2.1 LTS
# www.blender.org
mtllib earpost.mtl
o Body.001
v 0.119025 1.691148 -0.034025
v 0.078955 1.719129 -0.011149
v 0.119168 1.691355 -0.034027
v 0.079099 1.719336 -0.011152
v 0.119327 1.691546 -0.033981
v 0.079258 1.719527 -0.011106
v 0.119497 1.691714 -0.033889
v 0.079428 1.719694 -0.011014
v 0.119670 1.691852 -0.033754
v 0.079601 1.719833 -0.010879
v 0.119841 1.691956 -0.033582
v 0.079772 1.719936 -0.010707
v 0.120002 1.692021 -0.033379
v 0.079933 1.720001 -0.010504
v 0.120147 1.692044 -0.033153
v 0.080078 1.720024 -0.010278
v 0.120272 1.692025 -0.032913
v 0.080202 1.720006 -0.010038
v 0.120370 1.691965 -0.032667
v 0.080300 1.719945 -0.009792
v 0.120438 1.691865 -0.032426
v 0.080369 1.719846 -0.009551
v 0.120474 1.691731 -0.032198
v 0.080405 1.719711 -0.009323
v 0.120476 1.691566 -0.031993
v 0.080407 1.719546 -0.009118
v 0.120444 1.691377 -0.031817
v 0.080375 1.719358 -0.008942
v 0.120380 1.691172 -0.031679
v 0.080311 1.719152 -0.008804
v 0.120285 1.690958 -0.031583
v 0.080216 1.718938 -0.008708
v 0.120164 1.690743 -0.031533
v 0.080095 1.718724 -0.008658
v 0.120021 1.690536 -0.031531
v 0.079952 1.718517 -0.008656
v 0.119862 1.690346 -0.031576
v 0.079792 1.718326 -0.008701
v 0.119692 1.690178 -0.031668
v 0.079623 1.718158 -0.008793
v 0.119519 1.690039 -0.031803
v 0.079449 1.718020 -0.008928
v 0.119348 1.689936 -0.031975
v 0.079279 1.717916 -0.009100
v 0.119187 1.689871 -0.032178
v 0.079118 1.717852 -0.009303
v 0.119041 1.689848 -0.032404
v 0.078972 1.717828 -0.009529
v 0.118917 1.689866 -0.032645
v 0.078848 1.717847 -0.009769
v 0.118819 1.689927 -0.032890
v 0.078750 1.717907 -0.010015
v 0.118751 1.690026 -0.033132
v 0.078682 1.718007 -0.010256
v 0.118715 1.690161 -0.033359
v 0.078646 1.718142 -0.010484
v 0.118713 1.690326 -0.033565
v 0.078644 1.718306 -0.010690
v 0.118745 1.690515 -0.033740
v 0.078675 1.718495 -0.010865
v 0.118809 1.690720 -0.033878
v 0.078740 1.718701 -0.011003
v 0.118904 1.690934 -0.033974
v 0.078834 1.718915 -0.011099
v 0.118205 1.692271 -0.035014
v 0.117922 1.691797 -0.034990
v 0.117686 1.691312 -0.034870
v 0.117506 1.690835 -0.034657
v 0.117389 1.690384 -0.034359
v 0.117339 1.689977 -0.033989
v 0.117358 1.689628 -0.033561
v 0.117446 1.689353 -0.033090
v 0.117600 1.689160 -0.032595
v 0.117812 1.689058 -0.032095
v 0.118076 1.689051 -0.031610
v 0.118380 1.689138 -0.031157
v 0.118714 1.689316 -0.030754
v 0.119065 1.689579 -0.030418
v 0.119418 1.689917 -0.030160
v 0.119761 1.690316 -0.029990
v 0.120080 1.690761 -0.029916
v 0.120363 1.691235 -0.029939
v 0.120599 1.691720 -0.030060
v 0.120779 1.692197 -0.030273
v 0.120896 1.692648 -0.030570
v 0.120946 1.693055 -0.030940
v 0.120927 1.693403 -0.031369
v 0.120839 1.693679 -0.031840
v 0.120685 1.693871 -0.032334
v 0.120473 1.693973 -0.032834
v 0.120209 1.693981 -0.033320
v 0.119905 1.693894 -0.033773
v 0.119571 1.693715 -0.034175
v 0.119220 1.693452 -0.034512
v 0.118867 1.693115 -0.034770
v 0.118524 1.692716 -0.034939
v 0.123472 1.688812 -0.034858
v 0.079042 1.719419 -0.012659
v 0.079378 1.719853 -0.012594
v 0.079737 1.720241 -0.012434
v 0.080106 1.720568 -0.012184
v 0.080469 1.720823 -0.011855
v 0.080814 1.720994 -0.011458
v 0.081127 1.721076 -0.011010
v 0.081395 1.721065 -0.010527
v 0.081610 1.720962 -0.010029
v 0.081761 1.720771 -0.009533
v 0.081844 1.720498 -0.009059
v 0.081856 1.720155 -0.008626
v 0.081795 1.719755 -0.008250
v 0.081665 1.719313 -0.007945
v 0.081469 1.718846 -0.007724
v 0.081217 1.718372 -0.007594
v 0.080917 1.717909 -0.007561
v 0.080581 1.717475 -0.007626
v 0.080222 1.717087 -0.007786
v 0.079853 1.716759 -0.008036
v 0.079490 1.716505 -0.008365
v 0.079145 1.716333 -0.008761
v 0.078832 1.716251 -0.009210
v 0.078564 1.716262 -0.009692
v 0.078350 1.716365 -0.010191
v 0.078198 1.716557 -0.010687
v 0.078115 1.716829 -0.011160
v 0.078104 1.717172 -0.011594
v 0.078164 1.717572 -0.011970
v 0.078295 1.718015 -0.012275
v 0.078490 1.718482 -0.012496
v 0.078742 1.718956 -0.012626
v 0.075779 1.721558 -0.007708
vn 0.2079 -0.2480 -0.9462
vn -0.8080 0.4615 -0.3662
vn -0.7206 0.5880 -0.3674
vn 0.2954 -0.1215 -0.9476
vn -0.6249 0.7030 -0.3396
vn 0.3919 -0.0071 -0.9200
vn -0.5266 0.8007 -0.2857
vn 0.4909 0.0902 -0.8666
vn -0.4307 0.8777 -0.2102
vn 0.5878 0.1665 -0.7917
vn -0.3405 0.9328 -0.1182
vn 0.6788 0.2211 -0.7002
vn -0.2584 0.9659 -0.0141
vn 0.7615 0.2536 -0.5964
vn -0.1868 0.9775 0.0981
vn 0.8337 0.2649 -0.4845
vn -0.1264 0.9683 0.2153
vn 0.8943 0.2555 -0.3674
vn -0.0784 0.9390 0.3350
vn 0.9420 0.2264 -0.2476
vn -0.0442 0.8897 0.4544
vn 0.9758 0.1774 -0.1279
vn -0.0253 0.8208 0.5706
vn 0.9940 0.1090 -0.0113
vn -0.0236 0.7330 0.6799
vn 0.9949 0.0219 0.0985
vn -0.0405 0.6277 0.7774
vn 0.9770 -0.0829 0.1964
vn -0.0772 0.5082 0.8578
vn 0.9394 -0.2017 0.2773
vn -0.1338 0.3794 0.9155
vn 0.8823 -0.3302 0.3355
vn -0.2078 0.2480 0.9462
vn 0.8081 -0.4614 0.3663
vn -0.2955 0.1215 0.9476
vn 0.7205 -0.5880 0.3675
vn -0.3918 0.0071 0.9200
vn 0.6249 -0.7030 0.3396
vn -0.4908 -0.0902 0.8666
vn 0.5267 -0.8006 0.2857
vn -0.5879 -0.1664 0.7916
vn 0.4305 -0.8777 0.2102
vn -0.6790 -0.2210 0.7001
vn 0.3403 -0.9329 0.1182
vn -0.7615 -0.2536 0.5965
vn 0.2585 -0.9659 0.0141
vn -0.8337 -0.2648 0.4845
vn 0.1867 -0.9775 -0.0981
vn -0.8943 -0.2555 0.3675
vn 0.1264 -0.9683 -0.2153
vn -0.9420 -0.2264 0.2477
vn 0.0785 -0.9390 -0.3349
vn -0.9758 -0.1774 0.1279
vn 0.0442 -0.8897 -0.4544
vn -0.9940 -0.1089 0.0114
vn 0.0253 -0.8208 -0.5706
vn -0.9949 -0.0218 -0.0985
vn 0.0235 -0.7330 -0.6799
vn -0.9770 0.0829 -0.1965
vn 0.0406 -0.6277 -0.7774
vn -0.9393 0.2018 -0.2774
vn 0.0774 -0.5082 -0.8578
vn -0.8823 0.3302 -0.3355
vn 0.1339 -0.3794 -0.9155
vn -0.6739 0.4728 -0.5678
vn 0.7680 -0.4796 -0.4244
vn -0.7606 0.3275 -0.5606
vn -0.8330 0.1788 -0.5236
vn -0.8882 0.0326 -0.4583
vn -0.9241 -0.1056 -0.3672
vn -0.9394 -0.2305 -0.2538
vn -0.9334 -0.3372 -0.1223
vn -0.9065 -0.4217 0.0220
vn -0.8595 -0.4808 0.1737
vn -0.7943 -0.5121 0.3269
vn -0.7135 -0.5143 0.4758
vn -0.6202 -0.4876 0.6145
vn -0.5178 -0.4329 0.7379
vn -0.4104 -0.3522 0.8411
vn -0.3021 -0.2488 0.9203
vn -0.1969 -0.1265 0.9722
vn -0.0993 0.0100 0.9950
vn -0.0125 0.1552 0.9878
vn 0.0599 0.3039 0.9508
vn 0.1151 0.4501 0.8855
vn 0.1511 0.5883 0.7944
vn 0.1664 0.7132 0.6809
vn 0.1604 0.8199 0.5495
vn 0.1334 0.9044 0.4052
vn 0.0865 0.9634 0.2536
vn 0.0213 0.9947 0.1003
vn -0.0596 0.9970 -0.0486
vn -0.1529 0.9703 -0.1873
vn -0.2552 0.9156 -0.3107
vn -0.3626 0.8350 -0.4139
vn -0.4710 0.7315 -0.4930
vn -0.5761 0.6092 -0.5450
vn 0.0876 -0.0270 -0.9958
vn -0.7450 0.5133 0.4260
vn 0.1906 0.1061 -0.9759
vn 0.3008 0.2251 -0.9267
vn 0.4136 0.3255 -0.8503
vn 0.5251 0.4035 -0.7493
vn 0.6309 0.4560 -0.6278
vn 0.7267 0.4811 -0.4904
vn 0.8090 0.4777 -0.3424
vn 0.8747 0.4462 -0.1894
vn 0.9211 0.3875 -0.0375
vn 0.9466 0.3040 0.1076
vn 0.9501 0.1989 0.2404
vn 0.9314 0.0762 0.3558
vn 0.8915 -0.0594 0.4492
vn 0.8316 -0.2025 0.5171
vn 0.7542 -0.3479 0.5569
vn 0.6623 -0.4898 0.5670
vn 0.5593 -0.6228 0.5471
vn 0.4492 -0.7418 0.4980
vn 0.3362 -0.8422 0.4215
vn 0.2248 -0.9202 0.3205
vn 0.1191 -0.9727 0.1990
vn 0.0232 -0.9978 0.0616
vn -0.0591 -0.9945 -0.0864
vn -0.1248 -0.9629 -0.2393
vn -0.1712 -0.9042 -0.3913
vn -0.1967 -0.8207 -0.5364
vn -0.2002 -0.7156 -0.6692
vn -0.1815 -0.5929 -0.7846
vn -0.1415 -0.4573 -0.8780
vn -0.0818 -0.3142 -0.9458
vn -0.0044 -0.1689 -0.9856
vt 1.000000 0.500000
vt 1.000000 1.000000
vt 0.968750 1.000000
vt 0.968750 0.500000
vt 0.937500 1.000000
vt 0.937500 0.500000
vt 0.906250 1.000000
vt 0.906250 0.500000
vt 0.875000 1.000000
vt 0.875000 0.500000
vt 0.843750 1.000000
vt 0.843750 0.500000
vt 0.812500 1.000000
vt 0.812500 0.500000
vt 0.781250 1.000000
vt 0.781250 0.500000
vt 0.750000 1.000000
vt 0.750000 0.500000
vt 0.718750 1.000000
vt 0.718750 0.500000
vt 0.687500 1.000000
vt 0.687500 0.500000
vt 0.656250 1.000000
vt 0.656250 0.500000
vt 0.625000 1.000000
vt 0.625000 0.500000
vt 0.593750 1.000000
vt 0.593750 0.500000
vt 0.562500 1.000000
vt 0.562500 0.500000
vt 0.531250 1.000000
vt 0.531250 0.500000
vt 0.500000 1.000000
vt 0.500000 0.500000
vt 0.468750 1.000000
vt 0.468750 0.500000
vt 0.437500 1.000000
vt 0.437500 0.500000
vt 0.406250 1.000000
vt 0.406250 0.500000
vt 0.375000 1.000000
vt 0.375000 0.500000
vt 0.343750 1.000000
vt 0.343750 0.500000
vt 0.312500 1.000000
vt 0.312500 0.500000
vt 0.281250 1.000000
vt 0.281250 0.500000
vt 0.250000 1.000000
vt 0.250000 0.500000
vt 0.218750 1.000000
vt 0.218750 0.500000
vt 0.187500 1.000000
vt 0.187500 0.500000
vt 0.156250 1.000000
vt 0.156250 0.500000
vt 0.125000 1.000000
vt 0.125000 0.500000
vt 0.093750 1.000000
vt 0.093750 0.500000
vt 0.062500 1.000000
vt 0.062500 0.500000
vt 0.296822 0.485388
vt 0.250000 0.490000
vt 0.203178 0.485388
vt 0.158156 0.471731
vt 0.116663 0.449553
vt 0.080294 0.419706
vt 0.050447 0.383337
vt 0.028269 0.341844
vt 0.014612 0.296822
vt 0.010000 0.250000
vt 0.014612 0.203178
vt 0.028269 0.158156
vt 0.050447 0.116663
vt 0.080294 0.080294
vt 0.116663 0.050447
vt 0.158156 0.028269
vt 0.203178 0.014612
vt 0.250000 0.010000
vt 0.296822 0.014612
vt 0.341844 0.028269
vt 0.383337 0.050447
vt 0.419706 0.080294
vt 0.449553 0.116663
vt 0.471731 0.158156
vt 0.485388 0.203178
vt 0.490000 0.250000
vt 0.485388 0.296822
vt 0.471731 0.341844
vt 0.449553 0.383337
vt 0.419706 0.419706
vt 0.383337 0.449553
vt 0.341844 0.471731
vt 0.031250 1.000000
vt 0.031250 0.500000
vt 0.000000 1.000000
vt 0.000000 0.500000
vt 0.750000 0.490000
vt 0.796822 0.485388
vt 0.841844 0.471731
vt 0.883337 0.449553
vt 0.919706 0.419706
vt 0.949553 0.383337
vt 0.971731 0.341844
vt 0.985388 0.296822
vt 0.990000 0.250000
vt 0.985388 0.203178
vt 0.971731 0.158156
vt 0.949553 0.116663
vt 0.919706 0.080294
vt 0.883337 0.050447
vt 0.841844 0.028269
vt 0.796822 0.014612
vt 0.750000 0.010000
vt 0.703178 0.014612
vt 0.658156 0.028269
vt 0.616663 0.050447
vt 0.580294 0.080294
vt 0.550447 0.116663
vt 0.528269 0.158156
vt 0.514612 0.203178
vt 0.510000 0.250000
vt 0.514612 0.296822
vt 0.528269 0.341844
vt 0.550447 0.383337
vt 0.580294 0.419706
vt 0.616663 0.449553
vt 0.658156 0.471731
vt 0.703178 0.485388
vt 0.250000 0.250000
s 1
usemtl Material.003
f 1/1/1 2/2/2 4/3/3 3/4/4
f 3/4/4 4/3/3 6/5/5 5/6/6
f 5/6/6 6/5/5 8/7/7 7/8/8
f 7/8/8 8/7/7 10/9/9 9/10/10
f 9/10/10 10/9/9 12/11/11 11/12/12
f 11/12/12 12/11/11 14/13/13 13/14/14
f 13/14/14 14/13/13 16/15/15 15/16/16
f 15/16/16 16/15/15 18/17/17 17/18/18
f 17/18/18 18/17/17 20/19/19 19/20/20
f 19/20/20 20/19/19 22/21/21 21/22/22
f 21/22/22 22/21/21 24/23/23 23/24/24
f 23/24/24 24/23/23 26/25/25 25/26/26
f 25/26/26 26/25/25 28/27/27 27/28/28
f 27/28/28 28/27/27 30/29/29 29/30/30
f 29/30/30 30/29/29 32/31/31 31/32/32
f 31/32/32 32/31/31 34/33/33 33/34/34
f 33/34/34 34/33/33 36/35/35 35/36/36
f 35/36/36 36/35/35 38/37/37 37/38/38
f 37/38/38 38/37/37 40/39/39 39/40/40
f 39/40/40 40/39/39 42/41/41 41/42/42
f 41/42/42 42/41/41 44/43/43 43/44/44
f 43/44/44 44/43/43 46/45/45 45/46/46
f 45/46/46 46/45/45 48/47/47 47/48/48
f 47/48/48 48/47/47 50/49/49 49/50/50
f 49/50/50 50/49/49 52/51/51 51/52/52
f 51/52/52 52/51/51 54/53/53 53/54/54
f 53/54/54 54/53/53 56/55/55 55/56/56
f 55/56/56 56/55/55 58/57/57 57/58/58
f 57/58/58 58/57/57 60/59/59 59/60/60
f 59/60/60 60/59/59 62/61/61 61/62/62
f 4/63/3 2/64/2 64/65/63 62/66/61 60/67/59 58/68/57 56/69/55 54/70/53 52/71/51 50/72/49 48/73/47 46/74/45 44/75/43 42/76/41 40/77/39 38/78/37 36/79/35 34/80/33 32/81/31 30/82/29 28/83/27 26/84/25 24/85/23 22/86/21 20/87/19 18/88/17 16/89/15 14/90/13 12/91/11 10/92/9 8/93/7 6/94/5
f 61/62/62 62/61/61 64/95/63 63/96/64
f 63/96/64 64/95/63 2/97/2 1/98/1
f 1/99/1 3/100/4 5/101/6 7/102/8 9/103/10 11/104/12 13/105/14 15/106/16 17/107/18 19/108/20 21/109/22 23/110/24 25/111/26 27/112/28 29/113/30 31/114/32 33/115/34 35/116/36 37/117/38 39/118/40 41/119/42 43/120/44 45/121/46 47/122/48 49/123/50 51/124/52 53/125/54 55/126/56 57/127/58 59/128/60 61/129/62 63/130/64
usemtl Material.004
f 65/64/65 97/131/66 66/63/67
f 66/63/67 97/131/66 67/94/68
f 67/94/68 97/131/66 68/93/69
f 68/93/69 97/131/66 69/92/70
f 69/92/70 97/131/66 70/91/71
f 70/91/71 97/131/66 71/90/72
f 71/90/72 97/131/66 72/89/73
f 72/89/73 97/131/66 73/88/74
f 73/88/74 97/131/66 74/87/75
f 74/87/75 97/131/66 75/86/76
f 75/86/76 97/131/66 76/85/77
f 76/85/77 97/131/66 77/84/78
f 77/84/78 97/131/66 78/83/79
f 78/83/79 97/131/66 79/82/80
f 79/82/80 97/131/66 80/81/81
f 80/81/81 97/131/66 81/80/82
f 81/80/82 97/131/66 82/79/83
f 82/79/83 97/131/66 83/78/84
f 83/78/84 97/131/66 84/77/85
f 84/77/85 97/131/66 85/76/86
f 85/76/86 97/131/66 86/75/87
f 86/75/87 97/131/66 87/74/88
f 87/74/88 97/131/66 88/73/89
f 88/73/89 97/131/66 89/72/90
f 89/72/90 97/131/66 90/71/91
f 90/71/91 97/131/66 91/70/92
f 91/70/92 97/131/66 92/69/93
f 92/69/93 97/131/66 93/68/94
f 93/68/94 97/131/66 94/67/95
f 94/67/95 97/131/66 95/66/96
f 65/99/65 66/100/67 67/101/68 68/102/69 69/103/70 70/104/71 71/105/72 72/106/73 73/107/74 74/108/75 75/109/76 76/110/77 77/111/78 78/112/79 79/113/80 80/114/81 81/115/82 82/116/83 83/117/84 84/118/85 85/119/86 86/120/87 87/121/88 88/122/89 89/123/90 90/124/91 91/125/92 92/126/93 93/127/94 94/128/95 95/129/96 96/130/97
f 95/66/96 97/131/66 96/65/97
f 96/65/97 97/131/66 65/64/65
f 98/64/98 130/131/99 99/63/100
f 99/63/100 130/131/99 100/94/101
f 100/94/101 130/131/99 101/93/102
f 101/93/102 130/131/99 102/92/103
f 102/92/103 130/131/99 103/91/104
f 103/91/104 130/131/99 104/90/105
f 104/90/105 130/131/99 105/89/106
f 105/89/106 130/131/99 106/88/107
f 106/88/107 130/131/99 107/87/108
f 107/87/108 130/131/99 108/86/109
f 108/86/109 130/131/99 109/85/110
f 109/85/110 130/131/99 110/84/111
f 110/84/111 130/131/99 111/83/112
f 111/83/112 130/131/99 112/82/113
f 112/82/113 130/131/99 113/81/114
f 113/81/114 130/131/99 114/80/115
f 114/80/115 130/131/99 115/79/116
f 115/79/116 130/131/99 116/78/117
f 116/78/117 130/131/99 117/77/118
f 117/77/118 130/131/99 118/76/119
f 118/76/119 130/131/99 119/75/120
f 119/75/120 130/131/99 120/74/121
f 120/74/121 130/131/99 121/73/122
f 121/73/122 130/131/99 122/72/123
f 122/72/123 130/131/99 123/71/124
f 123/71/124 130/131/99 124/70/125
f 124/70/125 130/131/99 125/69/126
f 125/69/126 130/131/99 126/68/127
f 126/68/127 130/131/99 127/67/128
f 127/67/128 130/131/99 128/66/129
f 98/99/98 99/100/100 100/101/101 101/102/102 102/103/103 103/104/104 104/105/105 105/106/106 106/107/107 107/108/108 108/109/109 109/110/110 110/111/111 111/112/112 112/113/113 113/114/114 114/115/115 115/116/116 116/117/117 117/118/118 118/119/119 119/120/120 120/121/121 121/122/122 122/123/123 123/124/124 124/125/125 125/126/126 126/127/127 127/128/128 128/129/129 129/130/130
f 128/66/129 130/131/99 129/65/130
f 129/65/130 130/131/99 98/64/98
